<svg class="WPS-Logo" width="276" height="125" viewBox="0 0 276 125" fill="none" xmlns="http://www.w3.org/2000/svg">
<path fill-rule="evenodd" clip-rule="evenodd" d="M135.396 1.28986C126.733 1.55244 113.913 2.00463 113.755 2.05318C113.631 2.0911 113.582 2.52414 113.582 3.59693V5.08799L114.997 5.26574C115.776 5.36352 117.158 5.47275 118.069 5.50846C121.686 5.64996 124.118 6.13085 125.355 6.94919C126.544 7.73623 127.484 9.31749 127.875 11.1892C128.372 13.5731 128.397 15.1529 128.456 48.3827C128.515 81.6658 128.464 86.2898 128.002 89.3739C127.537 92.4764 126.378 94.3713 124.294 95.4351C122.687 96.2554 119.569 96.7195 115.664 96.7195H113.582V98.4433V100.167H135.879H158.175V98.4433V96.7195L155.794 96.719C148.641 96.7175 145.573 95.6209 144.108 92.5406C142.882 89.9621 142.715 86.977 142.714 67.5864L142.713 54.1059L148.753 54.1031C160.339 54.098 166.487 53.6705 171.668 52.51C178.754 50.9224 184.283 46.628 187.501 40.2126C189.415 36.3968 190.536 31.3646 190.09 28.5929C189.985 27.9422 189.885 26.1014 189.864 24.4557C189.824 21.2998 189.772 20.9583 188.981 18.6635C187.901 15.5291 186.539 13.3667 184.001 10.7537C181.657 8.34028 179.421 6.71503 176.468 5.27761C172.262 3.22982 167.551 2.18309 159.073 1.41218C157.013 1.2249 140.375 1.13899 135.396 1.28986ZM145.474 4.88002C144.449 4.93394 143.408 4.98537 143.161 4.99434L142.713 5.01062V27.6404V50.2701L149.029 50.2045C155.628 50.1359 156.902 50.0426 160.039 49.3978C165.029 48.3724 168.133 46.4214 170.904 42.5695C173.032 39.6119 174.281 36.2438 174.821 32.0054C175.112 29.7214 175.037 24.7739 174.676 22.456C173.67 15.9917 171.191 11.5275 167.08 8.7744C162.385 5.6301 155.345 4.36121 145.474 4.88002Z" fill="#C3AB93"/>
<path fill-rule="evenodd" clip-rule="evenodd" d="M211.052 0.667762C204.156 1.61271 198.457 4.90417 194.312 10.3364C190.426 15.4294 189.01 22.2221 190.281 29.6709C191.325 35.789 195.218 42.0063 200.445 45.9051C204.027 48.5768 209.84 51.5961 219.681 55.8964C229.768 60.3039 235.276 63.5522 238.487 66.9871C243.507 72.3561 244.395 80.7088 240.645 87.2728C238.632 90.7966 235.574 93.7158 232.256 95.2818C229.051 96.7944 225.969 97.409 221.59 97.409C215.586 97.409 210.836 95.9889 206.431 92.8774C204.909 91.8024 202.185 89.0757 200.912 87.354C197.516 82.7591 195.003 76.8181 193.265 69.2758L192.741 67.0003L190.921 66.9618L189.101 66.9233V82.6529V98.3824L190.914 98.3439L192.727 98.3054L193.242 96.2368C193.957 93.3649 194.678 91.4645 195.691 89.7802L196.173 88.978L198.194 90.9628C201.488 94.1985 203.82 95.8795 207.532 97.6938C210.862 99.3218 213.877 100.228 217.886 100.807C219.914 101.099 225.277 101.14 227.55 100.88C233.944 100.149 239.311 98.0355 243.65 94.5404C245.04 93.4204 247.373 90.9691 248.365 89.5866C251.006 85.905 252.544 81.8853 253.181 76.9986C253.437 75.0343 253.394 70.5128 253.099 68.5173C252.353 63.4599 250.565 59.3076 247.486 55.4843C245.623 53.1706 243.395 51.2351 240.754 49.6351C237.682 47.7747 231.56 44.7181 224.858 41.6987C219.811 39.4246 218.206 38.6658 215.608 37.325C204.062 31.3644 199.813 26.695 199.495 19.6155C199.369 16.792 199.826 14.598 201.047 12.1818C203.353 7.61516 206.659 5.17598 211.812 4.23917C213.716 3.89288 218.301 3.88709 220.128 4.22841C226.799 5.47552 232.358 9.31626 236.529 15.5606C238.423 18.3961 240.105 22.115 241.092 25.6479C241.364 26.6229 241.612 27.5003 241.642 27.5975C241.683 27.7311 242.093 27.7648 243.321 27.7354L244.946 27.6965L244.981 14.9745L245.016 2.25247H243.374C241.616 2.25247 241.563 2.27426 241.563 2.99621C241.563 3.5004 241.02 5.42188 240.574 6.49149C240.167 7.46967 238.986 9.46713 238.359 10.2382L238.043 10.6274L236.11 8.74642C232.396 5.13157 229.653 3.33587 225.964 2.10394C223.91 1.41798 221.804 0.943034 219.616 0.672458C217.521 0.413467 212.927 0.410977 211.052 0.667762ZM0.925354 3.42469V5.14854L1.51211 5.14896C2.44995 5.14951 4.49613 5.43138 5.61938 5.71465C8.82099 6.5221 10.7868 8.52494 12.373 12.5956C13.5584 15.6373 15.7266 22.5142 28.015 62.2062L40.0653 101.129L41.8601 101.128L43.6548 101.127L56.4944 61.3461C63.5561 39.4667 69.3685 21.564 69.4106 21.5625C69.4528 21.5608 76.1023 39.4481 84.1875 61.3116L98.8878 101.064L100.562 101.102L102.237 101.141L102.381 100.688C102.46 100.44 107.409 83.5113 113.379 63.0699C125.453 21.7289 125.754 20.7324 127.677 15.8197C128.234 14.3968 128.249 14.3183 128.16 13.2326C128.029 11.6272 127.731 10.3376 127.253 9.31887C126.003 6.65035 124.318 5.8869 118.972 5.56709C117.796 5.49676 116.815 5.45897 116.791 5.4831C116.767 5.50724 117.075 5.63356 117.477 5.76389C120.116 6.61974 121.887 8.47267 122.624 11.1475C122.933 12.2712 123.047 15.04 122.842 16.4766C122.63 17.9736 121.729 22.0398 121.03 24.6625C119.933 28.7727 105.384 79.1887 105.308 79.1416C105.265 79.1148 98.8615 61.6806 91.0783 40.3988L76.9272 1.70442L74.8563 1.70276L72.7854 1.70097L60.1563 40.5138C53.2102 61.8609 47.5169 79.3148 47.5044 79.3005C47.4729 79.2639 30.0849 22.5397 29.2974 19.9047C28.9462 18.729 28.374 16.6501 28.0259 15.2848C27.4577 13.0562 27.3915 12.6334 27.3784 11.1475C27.3659 9.72295 27.4053 9.40286 27.6621 8.84778C28.0669 7.97289 29.0037 6.98947 29.831 6.57065C30.8693 6.04508 32.9232 5.57937 35.3365 5.32203L37.5112 5.0902V3.39558V1.70083H19.2183H0.925354V3.42469ZM265.139 88.0161C262.757 88.7982 260.931 90.9865 260.57 93.4909C259.991 97.5089 263.177 101.133 267.289 101.133C268.911 101.133 270.742 100.352 271.928 99.1541C272.797 98.2768 273.102 97.8228 273.458 96.8811C274.727 93.5218 273.27 89.8736 270.046 88.3398C269.03 87.8561 268.882 87.8248 267.45 87.7913C266.261 87.7636 265.759 87.8126 265.139 88.0161ZM64.847 114.423C63.3968 114.822 62.1439 115.77 61.4973 116.957C60.7259 118.372 60.6813 120.552 61.3936 122.021C62.6502 124.615 66.2029 125.721 69.1807 124.445C70.133 124.038 71.2276 122.938 71.6953 121.918C72.0436 121.159 72.0893 120.901 72.0921 119.681C72.0961 117.878 71.8332 117.109 70.8501 116.048C70.081 115.218 69.0696 114.625 68.0065 114.38C67.1908 114.192 65.6088 114.214 64.847 114.423ZM101.053 114.327C99.895 114.377 99.7761 114.407 99.7761 114.653C99.7761 114.876 99.8716 114.923 100.319 114.923C101.311 114.923 101.295 114.845 101.295 119.553C101.295 123.566 101.283 123.762 101.019 124.025C100.835 124.209 100.558 124.301 100.19 124.301C99.7914 124.301 99.638 124.359 99.638 124.508C99.638 124.684 100.014 124.715 102.192 124.715C104.37 124.715 104.746 124.684 104.746 124.508C104.746 124.355 104.585 124.301 104.125 124.301C103.049 124.301 102.951 124.096 102.951 121.819V119.888H103.338C103.819 119.888 104.358 120.436 105.713 122.301C106.263 123.06 106.936 123.913 107.208 124.198L107.702 124.715H109.192C110.384 124.715 110.683 124.676 110.683 124.52C110.683 124.401 110.471 124.29 110.136 124.233C109.342 124.099 108.629 123.518 107.569 122.14C107.054 121.47 106.355 120.632 106.016 120.278L105.398 119.633L105.949 119.485C107.265 119.131 108.06 118.208 108.06 117.034C108.06 115.214 106.789 114.393 103.849 114.313C103.014 114.291 101.756 114.297 101.053 114.327ZM114.687 114.423C113.236 114.822 111.983 115.77 111.337 116.957C110.565 118.372 110.521 120.552 111.233 122.021C112.49 124.615 116.042 125.721 119.02 124.445C119.973 124.038 121.067 122.938 121.535 121.918C121.883 121.159 121.929 120.901 121.932 119.681C121.936 117.878 121.673 117.109 120.69 116.048C119.921 115.218 118.909 114.625 117.846 114.38C117.03 114.192 115.448 114.214 114.687 114.423ZM144.542 114.327C143.384 114.377 143.265 114.407 143.265 114.653C143.265 114.876 143.36 114.923 143.807 114.923C144.8 114.923 144.784 114.845 144.784 119.553C144.784 123.566 144.771 123.762 144.507 124.025C144.323 124.209 144.047 124.301 143.679 124.301C143.28 124.301 143.127 124.359 143.127 124.508C143.127 124.684 143.503 124.715 145.681 124.715C147.859 124.715 148.235 124.684 148.235 124.508C148.235 124.355 148.074 124.301 147.614 124.301C146.537 124.301 146.44 124.096 146.44 121.819V119.888H146.826C147.308 119.888 147.847 120.436 149.201 122.301C149.752 123.06 150.425 123.913 150.697 124.198L151.19 124.715H152.681C153.873 124.715 154.172 124.676 154.172 124.52C154.172 124.401 153.96 124.29 153.624 124.233C152.831 124.099 152.118 123.518 151.058 122.14C150.543 121.47 149.844 120.632 149.504 120.278L148.887 119.633L149.438 119.485C150.754 119.131 151.548 118.208 151.548 117.034C151.548 115.214 150.277 114.393 147.338 114.313C146.502 114.291 145.244 114.297 144.542 114.327ZM182.613 114.445C181.558 114.921 181.093 115.642 181.093 116.804C181.093 117.845 181.494 118.67 182.246 119.175C182.561 119.387 183.551 119.915 184.446 120.349C185.694 120.954 186.136 121.241 186.344 121.582C187.125 122.862 186.1 124.437 184.485 124.438C183.1 124.44 182.03 123.507 181.63 121.949C181.502 121.447 181.389 121.267 181.205 121.267C180.977 121.267 180.955 121.419 180.955 122.991C180.955 124.424 180.99 124.715 181.161 124.715C181.273 124.715 181.461 124.487 181.577 124.209L181.789 123.703L182.166 124.055C182.887 124.729 183.427 124.92 184.615 124.919C185.575 124.918 185.807 124.868 186.378 124.533C186.74 124.321 187.205 123.892 187.413 123.58C187.741 123.084 187.789 122.875 187.789 121.944C187.789 120.983 187.748 120.818 187.375 120.279C187.033 119.785 186.685 119.542 185.373 118.879C184.5 118.438 183.522 117.924 183.2 117.736C182.571 117.37 182.198 116.811 182.198 116.233C182.198 115.768 182.543 115.108 182.88 114.927C183.335 114.685 184.567 114.758 185.058 115.057C185.6 115.387 186.289 116.309 186.412 116.87C186.475 117.155 186.574 117.27 186.732 117.239C186.927 117.202 186.961 116.991 186.961 115.82C186.961 114.699 186.922 114.437 186.751 114.404C186.624 114.38 186.478 114.53 186.382 114.786L186.222 115.208L185.603 114.772C185.088 114.409 184.827 114.328 184.04 114.282C183.376 114.244 182.952 114.292 182.613 114.445ZM193.795 114.423C192.345 114.822 191.092 115.77 190.445 116.957C189.674 118.372 189.629 120.552 190.341 122.021C191.598 124.615 195.151 125.721 198.128 124.445C199.081 124.038 200.175 122.938 200.643 121.918C200.991 121.159 201.037 120.901 201.04 119.681C201.044 117.878 200.781 117.109 199.798 116.048C199.029 115.218 198.017 114.625 196.954 114.38C196.139 114.192 194.557 114.214 193.795 114.423ZM246.534 114.423C245.083 114.822 243.831 115.77 243.184 116.957C242.412 118.372 242.368 120.552 243.08 122.021C244.337 124.615 247.889 125.721 250.867 124.445C251.82 124.038 252.914 122.938 253.382 121.918C253.73 121.159 253.776 120.901 253.779 119.681C253.783 117.878 253.52 117.109 252.537 116.048C251.768 115.218 250.756 114.625 249.693 114.38C248.877 114.192 247.295 114.214 246.534 114.423ZM269.867 114.445C268.812 114.921 268.347 115.642 268.347 116.804C268.347 117.845 268.748 118.67 269.5 119.175C269.815 119.387 270.805 119.915 271.699 120.349C272.947 120.954 273.389 121.241 273.597 121.582C274.379 122.862 273.354 124.437 271.739 124.438C270.353 124.44 269.284 123.507 268.884 121.949C268.755 121.447 268.643 121.267 268.459 121.267C268.231 121.267 268.209 121.419 268.209 122.991C268.209 124.424 268.243 124.715 268.414 124.715C268.527 124.715 268.715 124.487 268.831 124.209L269.043 123.703L269.42 124.055C270.141 124.729 270.681 124.92 271.868 124.919C272.829 124.918 273.061 124.868 273.632 124.533C273.994 124.321 274.459 123.892 274.666 123.58C274.995 123.084 275.043 122.875 275.043 121.944C275.043 120.983 275.002 120.818 274.629 120.279C274.286 119.785 273.939 119.542 272.627 118.879C271.754 118.438 270.775 117.924 270.453 117.736C269.824 117.37 269.451 116.811 269.451 116.233C269.451 115.768 269.797 115.108 270.134 114.927C270.588 114.685 271.821 114.758 272.312 115.057C272.854 115.387 273.542 116.309 273.666 116.87C273.729 117.155 273.827 117.27 273.986 117.239C274.181 117.202 274.215 116.991 274.215 115.82C274.215 114.699 274.176 114.437 274.005 114.404C273.878 114.38 273.732 114.53 273.635 114.786L273.476 115.208L272.857 114.772C272.341 114.409 272.081 114.328 271.294 114.282C270.63 114.244 270.206 114.292 269.867 114.445ZM1.06341 114.63C1.06341 114.808 1.19471 114.915 1.48449 114.973C2.04101 115.084 2.11446 115.266 3.76317 120.612C4.87869 124.23 5.15647 124.991 5.36108 124.991C5.56375 124.991 5.84981 124.249 6.9362 120.91C7.66626 118.665 8.28172 116.85 8.30381 116.876C8.3259 116.902 9.014 118.738 9.8331 120.957C11.033 124.207 11.371 124.991 11.572 124.991C11.7451 124.991 11.8658 124.826 11.9664 124.453C12.5239 122.385 14.3735 116.284 14.5937 115.787C14.783 115.359 14.9878 115.13 15.2807 115.02C15.5296 114.926 15.6977 114.764 15.6977 114.617C15.6977 114.397 15.5462 114.372 14.2481 114.372C12.9462 114.372 12.7985 114.397 12.7985 114.619C12.7985 114.779 12.9568 114.913 13.2457 114.998C14.0511 115.236 14.0394 115.504 13.0739 118.937C12.5962 120.636 12.1644 122.105 12.1141 122.203C12.064 122.3 11.3714 120.594 10.5752 118.41C9.35197 115.056 9.08579 114.441 8.85758 114.441C8.62633 114.441 8.41358 114.975 7.37344 118.164C6.70564 120.212 6.11323 122.003 6.05676 122.144C5.9372 122.443 3.96267 116.183 3.96267 115.504C3.96267 115.083 4.15581 114.923 4.66428 114.923C4.837 114.923 4.92909 114.828 4.92909 114.648C4.92909 114.385 4.837 114.372 2.99625 114.372C1.19844 114.372 1.06341 114.39 1.06341 114.63ZM16.6642 114.648C16.6642 114.877 16.7562 114.923 17.2066 114.923C18.2006 114.923 18.1828 114.838 18.1828 119.614C18.1828 123.857 18.1818 123.872 17.8759 124.086C17.7072 124.204 17.3655 124.301 17.1166 124.301C16.8065 124.301 16.6642 124.366 16.6642 124.508C16.6642 124.684 17.017 124.715 19.0112 124.715C21.0053 124.715 21.3582 124.684 21.3582 124.508C21.3582 124.366 21.2154 124.301 20.9013 124.301C19.9717 124.301 19.9137 124.159 19.8644 121.761L19.8201 119.612H22.453H25.0858L25.085 121.371C25.0839 123.967 24.9418 124.294 23.8088 124.299C23.5641 124.3 23.4291 124.375 23.4291 124.508C23.4291 124.684 23.7896 124.715 25.8451 124.715C27.9007 124.715 28.2612 124.684 28.2612 124.508C28.2612 124.365 28.1172 124.301 27.7933 124.301C27.536 124.301 27.1868 124.189 27.0175 124.052C26.7225 123.813 26.7066 123.688 26.6381 121.053C26.5517 117.732 26.6826 115.417 26.9729 115.126C27.0849 115.015 27.4251 114.923 27.729 114.923C28.1807 114.923 28.2729 114.879 28.2351 114.682C28.1932 114.465 27.9481 114.437 25.8088 114.403C23.4994 114.366 23.4291 114.374 23.4291 114.644C23.4291 114.882 23.5188 114.923 24.0335 114.923C24.9388 114.923 25.0089 115.08 25.0648 117.22L25.1129 119.061H22.4762H19.8395V117.299C19.8395 115.2 19.9532 114.923 20.8138 114.923C21.2661 114.923 21.3582 114.877 21.3582 114.648C21.3582 114.382 21.2661 114.372 19.0112 114.372C16.7562 114.372 16.6642 114.382 16.6642 114.648ZM29.7339 114.464C29.4613 114.736 29.676 114.923 30.2599 114.923C31.3175 114.923 31.3167 114.919 31.2699 119.746C31.2317 123.683 31.2148 123.921 30.9615 124.106C30.814 124.213 30.4569 124.301 30.1676 124.301C29.7923 124.301 29.6418 124.36 29.6418 124.508C29.6418 124.684 30.0022 124.715 32.0578 124.715C34.1134 124.715 34.4739 124.684 34.4739 124.508C34.4739 124.363 34.3281 124.301 33.9907 124.301C33.6915 124.301 33.4022 124.196 33.2313 124.025C32.9674 123.762 32.9552 123.566 32.9552 119.553C32.9552 114.845 32.9386 114.923 33.9314 114.923C34.3818 114.923 34.4739 114.877 34.4739 114.648C34.4739 114.383 34.3818 114.372 32.1499 114.372C30.8716 114.372 29.7844 114.413 29.7339 114.464ZM36.3722 114.473C35.4669 114.544 35.4897 114.866 36.4089 114.993C36.8714 115.056 37.1466 115.172 37.2373 115.341C37.3176 115.491 37.3731 117.262 37.3731 119.672C37.3731 123.566 37.3607 123.762 37.097 124.025C36.913 124.209 36.6368 124.301 36.2686 124.301C35.8698 124.301 35.7164 124.359 35.7164 124.508C35.7164 124.686 36.1826 124.715 39.0844 124.715C42.0593 124.715 42.5563 124.683 43.3439 124.44C44.9037 123.958 45.9633 122.745 46.3299 121.019C46.9974 117.876 45.385 115.136 42.5091 114.527C41.8345 114.384 37.9383 114.35 36.3722 114.473ZM48.6595 114.473C47.7542 114.544 47.777 114.866 48.6962 114.993C49.1587 115.056 49.4339 115.172 49.5246 115.341C49.6049 115.491 49.6604 117.262 49.6604 119.672C49.6604 123.566 49.648 123.762 49.3843 124.025C49.2003 124.209 48.9242 124.301 48.556 124.301C48.1571 124.301 48.0037 124.359 48.0037 124.508C48.0037 124.686 48.4699 124.715 51.3717 124.715C54.3466 124.715 54.8436 124.683 55.6312 124.44C57.191 123.958 58.2506 122.745 58.6172 121.019C59.2847 117.876 57.6723 115.136 54.7964 114.527C54.1218 114.384 50.2256 114.35 48.6595 114.473ZM73.7749 114.464C73.516 114.722 73.7142 114.923 74.2272 114.923C75.1936 114.923 75.2015 114.962 75.2015 119.64V123.743L74.8908 123.943C74.7201 124.053 74.3473 124.185 74.0625 124.237C73.7582 124.293 73.5448 124.411 73.5448 124.523C73.5448 124.678 73.9305 124.715 75.5466 124.715C77.1484 124.715 77.5485 124.677 77.5485 124.526C77.5485 124.408 77.3279 124.308 76.962 124.259C76.5649 124.206 76.275 124.064 76.0646 123.819C75.7579 123.463 75.7537 123.406 75.7537 119.52V115.581L79.2834 120.251C81.4579 123.129 82.9154 124.939 83.08 124.966C83.3397 125.009 83.347 124.88 83.347 120.311C83.347 115.842 83.3601 115.6 83.6154 115.345C83.7631 115.197 84.1048 115.035 84.3747 114.985C84.7315 114.918 84.8657 114.821 84.8657 114.632C84.8657 114.39 84.737 114.372 83.0018 114.372C81.2301 114.372 81.138 114.385 81.138 114.648C81.138 114.851 81.2301 114.923 81.4901 114.923C82.0058 114.923 82.6415 115.296 82.7282 115.65C82.7698 115.819 82.7862 117.353 82.7647 119.058L82.7257 122.158L79.7765 118.265L76.8273 114.372H75.3471C74.533 114.372 73.8254 114.413 73.7749 114.464ZM90.5261 114.636C90.5261 114.877 90.6111 114.923 91.052 114.923C91.3412 114.923 91.6984 115.011 91.8458 115.119C92.1009 115.305 92.1138 115.517 92.1138 119.544V123.774L91.7878 124.037C91.6086 124.183 91.2513 124.301 90.994 124.301C90.6701 124.301 90.5261 124.365 90.5261 124.508C90.5261 124.684 90.8866 124.715 92.9421 124.715C94.9977 124.715 95.3582 124.684 95.3582 124.508C95.3582 124.375 95.2232 124.3 94.9785 124.299C93.8654 124.294 93.7034 123.951 93.7023 121.598L93.7015 120.067L95.1686 119.972C97.5746 119.816 98.4627 119.224 98.7339 117.594C98.9257 116.44 98.3462 115.336 97.2391 114.746C96.7109 114.465 96.4478 114.439 93.5979 114.396C90.5623 114.349 90.5261 114.352 90.5261 114.636ZM123.798 114.636C123.798 114.877 123.884 114.923 124.324 114.923C124.614 114.923 124.971 115.011 125.118 115.119C125.373 115.305 125.386 115.517 125.386 119.544V123.774L125.06 124.037C124.881 124.183 124.524 124.301 124.266 124.301C123.942 124.301 123.798 124.365 123.798 124.508C123.798 124.684 124.159 124.715 126.215 124.715C128.27 124.715 128.631 124.684 128.631 124.508C128.631 124.375 128.496 124.3 128.251 124.299C127.138 124.294 126.976 123.951 126.975 121.598L126.974 120.067L128.441 119.972C130.847 119.816 131.735 119.224 132.006 117.594C132.198 116.44 131.619 115.336 130.512 114.746C129.983 114.465 129.72 114.439 126.87 114.396C123.835 114.349 123.798 114.352 123.798 114.636ZM133.325 114.648C133.325 114.861 133.417 114.923 133.729 114.923C134.565 114.923 134.567 114.938 134.567 119.553C134.567 123.566 134.555 123.762 134.291 124.025C134.12 124.196 133.831 124.301 133.532 124.301C133.194 124.301 133.048 124.363 133.048 124.508C133.048 124.688 133.624 124.715 137.397 124.715H141.746L141.747 123.991C141.748 123.593 141.788 122.841 141.838 122.322C141.918 121.467 141.904 121.381 141.684 121.425C141.541 121.454 141.337 121.749 141.188 122.144C140.85 123.035 140.401 123.668 139.889 123.978C139.553 124.181 139.185 124.232 138.06 124.232C137.09 124.232 136.596 124.176 136.473 124.053C136.345 123.926 136.279 123.257 136.246 121.743L136.199 119.612H137.23C138.406 119.612 138.555 119.712 138.671 120.572C138.717 120.915 138.818 121.129 138.934 121.129C139.084 121.129 139.123 120.761 139.123 119.336C139.123 117.911 139.084 117.544 138.934 117.544C138.817 117.544 138.716 117.76 138.669 118.112C138.627 118.425 138.524 118.749 138.439 118.833C138.355 118.918 137.822 119.01 137.255 119.039L136.224 119.091V117.007V114.923H137.526C138.243 114.923 138.982 114.982 139.17 115.053C139.678 115.246 140.055 115.715 140.304 116.462C140.442 116.878 140.607 117.13 140.74 117.13C140.925 117.13 140.94 116.957 140.854 115.854C140.799 115.153 140.725 114.532 140.69 114.475C140.654 114.418 138.983 114.372 136.975 114.372C133.417 114.372 133.325 114.379 133.325 114.648ZM153.619 114.832C153.619 115.088 153.579 115.678 153.531 116.144C153.448 116.933 153.462 116.992 153.721 116.992C153.938 116.992 154.037 116.85 154.161 116.355C154.251 115.998 154.497 115.543 154.719 115.32C155.102 114.938 155.166 114.923 156.439 114.923H157.761V119.397C157.761 123.865 157.761 123.872 157.454 124.086C157.286 124.204 156.882 124.301 156.557 124.301C156.124 124.301 155.966 124.356 155.966 124.508C155.966 124.685 156.35 124.715 158.59 124.715C160.829 124.715 161.213 124.685 161.213 124.508C161.213 124.356 161.055 124.301 160.618 124.301C159.443 124.301 159.492 124.505 159.447 119.417L159.407 114.923H160.646C161.327 114.923 162.041 114.983 162.233 115.055C162.603 115.196 162.998 115.83 163.14 116.508C163.189 116.747 163.328 116.941 163.467 116.968C163.685 117.01 163.704 116.89 163.669 115.728L163.629 114.441L158.624 114.405L153.619 114.368V114.832ZM164.526 114.644C164.526 114.829 164.617 114.923 164.794 114.923C165.275 114.923 165.73 115.501 167.349 118.164L168.943 120.784L168.943 122.267C168.944 123.937 168.771 124.301 167.978 124.301C167.701 124.301 167.563 124.37 167.563 124.508C167.563 124.683 167.901 124.715 169.772 124.715C171.644 124.715 171.981 124.683 171.981 124.508C171.981 124.37 171.843 124.301 171.567 124.301C170.765 124.301 170.601 123.943 170.601 122.198L170.601 120.647L171.924 118.445C173.526 115.78 173.923 115.264 174.542 115.04C174.845 114.931 175.019 114.778 175.019 114.62C175.019 114.394 174.862 114.372 173.293 114.372C171.659 114.372 171.567 114.386 171.567 114.648C171.567 114.85 171.659 114.923 171.912 114.923C172.414 114.923 172.855 115.413 172.746 115.848C172.698 116.04 172.15 117.058 171.529 118.11C170.665 119.575 170.364 119.983 170.245 119.852C169.983 119.565 167.746 115.833 167.645 115.514C167.535 115.168 167.873 114.923 168.462 114.923C168.734 114.923 168.815 114.863 168.78 114.682C168.738 114.467 168.506 114.437 166.63 114.403C164.597 114.366 164.526 114.374 164.526 114.644ZM202.907 114.648C202.907 114.877 202.999 114.923 203.449 114.923C204.442 114.923 204.425 114.845 204.425 119.553C204.425 123.566 204.413 123.762 204.149 124.025C203.978 124.196 203.689 124.301 203.39 124.301C203.052 124.301 202.907 124.363 202.907 124.508C202.907 124.688 203.49 124.715 207.325 124.715H211.743V123.198C211.743 121.835 211.718 121.681 211.497 121.681C211.324 121.681 211.196 121.867 211.067 122.302C210.79 123.24 210.19 123.983 209.573 124.155C209.285 124.234 208.507 124.3 207.842 124.3C205.969 124.302 206.082 124.599 206.082 119.643C206.082 114.863 206.068 114.923 207.194 114.923C207.785 114.923 207.877 114.886 207.877 114.648C207.877 114.382 207.785 114.372 205.392 114.372C202.999 114.372 202.907 114.382 202.907 114.648ZM212.019 114.644C212.019 114.874 212.109 114.924 212.536 114.925C213.494 114.929 213.461 114.8 213.537 118.818C213.605 122.354 213.615 122.465 213.951 123.113C214.143 123.483 214.543 123.955 214.849 124.175C216.495 125.352 219.672 125.18 220.967 123.844C221.785 122.999 221.857 122.637 221.93 118.939C221.99 115.872 222.019 115.553 222.258 115.314C222.402 115.17 222.704 115.016 222.93 114.971C223.209 114.915 223.34 114.807 223.34 114.63C223.34 114.391 223.209 114.372 221.614 114.372C220.014 114.372 219.888 114.391 219.888 114.632C219.888 114.819 220.02 114.917 220.352 114.98C220.608 115.027 220.934 115.196 221.077 115.354C221.317 115.619 221.338 115.899 221.338 118.834C221.338 120.589 221.291 122.192 221.234 122.394C221.084 122.928 220.491 123.578 219.836 123.926C219.378 124.169 219.035 124.229 218.083 124.23C217.022 124.232 216.84 124.193 216.327 123.853C215.312 123.182 215.276 123.032 215.227 119.13C215.176 115.07 215.188 115.015 216.207 114.95C216.741 114.916 216.859 114.863 216.823 114.674C216.783 114.467 216.506 114.436 214.398 114.403C212.089 114.366 212.019 114.374 212.019 114.644ZM224.72 114.832C224.72 115.088 224.68 115.678 224.631 116.144C224.549 116.933 224.562 116.992 224.822 116.992C225.039 116.992 225.137 116.85 225.262 116.355C225.352 115.998 225.598 115.543 225.82 115.32C226.203 114.938 226.267 114.923 227.54 114.923H228.862V119.397C228.862 123.865 228.862 123.872 228.555 124.086C228.386 124.204 227.982 124.301 227.658 124.301C227.225 124.301 227.067 124.356 227.067 124.508C227.067 124.685 227.451 124.715 229.69 124.715C231.93 124.715 232.313 124.685 232.313 124.508C232.313 124.356 232.155 124.301 231.719 124.301C230.544 124.301 230.593 124.505 230.548 119.417L230.508 114.923H231.747C232.428 114.923 233.142 114.983 233.333 115.055C233.703 115.196 234.099 115.83 234.24 116.508C234.29 116.747 234.428 116.941 234.568 116.968C234.786 117.01 234.805 116.89 234.769 115.728L234.729 114.441L229.725 114.405L224.72 114.368V114.832ZM236.133 114.464C235.861 114.736 236.075 114.923 236.659 114.923C237.717 114.923 237.716 114.919 237.669 119.746C237.631 123.683 237.614 123.921 237.361 124.106C237.213 124.213 236.856 124.301 236.567 124.301C236.192 124.301 236.041 124.36 236.041 124.508C236.041 124.684 236.402 124.715 238.457 124.715C240.513 124.715 240.873 124.684 240.873 124.508C240.873 124.363 240.727 124.301 240.39 124.301C240.091 124.301 239.801 124.196 239.631 124.025C239.367 123.762 239.354 123.566 239.354 119.553C239.354 114.845 239.338 114.923 240.331 114.923C240.781 114.923 240.873 114.877 240.873 114.648C240.873 114.383 240.781 114.372 238.549 114.372C237.271 114.372 236.184 114.413 236.133 114.464ZM255.461 114.464C255.203 114.722 255.401 114.923 255.914 114.923C256.88 114.923 256.888 114.962 256.888 119.64V123.743L256.577 123.943C256.406 124.053 256.034 124.185 255.749 124.237C255.445 124.293 255.231 124.411 255.231 124.523C255.231 124.678 255.617 124.715 257.233 124.715C258.835 124.715 259.235 124.677 259.235 124.526C259.235 124.408 259.014 124.308 258.649 124.259C258.252 124.206 257.962 124.064 257.751 123.819C257.444 123.463 257.44 123.406 257.44 119.52V115.581L260.97 120.251C263.145 123.129 264.602 124.939 264.767 124.966C265.026 125.009 265.034 124.88 265.034 120.311C265.034 115.842 265.047 115.6 265.302 115.345C265.45 115.197 265.791 115.035 266.061 114.985C266.418 114.918 266.552 114.821 266.552 114.632C266.552 114.39 266.424 114.372 264.688 114.372C262.917 114.372 262.825 114.385 262.825 114.648C262.825 114.851 262.917 114.923 263.177 114.923C263.692 114.923 264.328 115.296 264.415 115.65C264.456 115.819 264.473 117.353 264.451 119.058L264.412 122.158L261.463 118.265L258.514 114.372H257.034C256.22 114.372 255.512 114.413 255.461 114.464ZM39.059 119.309C39.0898 122.833 39.1399 123.915 39.2786 124.053C39.3986 124.172 39.8589 124.232 40.6592 124.232C42.1717 124.232 42.9846 123.943 43.6488 123.168C44.3888 122.304 44.6226 121.459 44.6134 119.681C44.6034 117.753 44.283 116.821 43.3017 115.863C42.5247 115.106 42.0495 114.942 40.3015 114.828L39.0189 114.744L39.059 119.309ZM51.3463 119.309C51.3771 122.833 51.4272 123.915 51.5659 124.053C51.6859 124.172 52.1462 124.232 52.9465 124.232C54.459 124.232 55.2719 123.943 55.9361 123.168C56.6761 122.304 56.9099 121.459 56.9007 119.681C56.8908 117.753 56.5703 116.821 55.589 115.863C54.812 115.106 54.3368 114.942 52.5888 114.828L51.3062 114.744L51.3463 119.309ZM65.07 114.988C64.3127 115.258 63.5168 116.091 63.1609 116.986C62.7525 118.014 62.71 120.95 63.0878 122.03C63.5916 123.47 64.6521 124.284 66.1863 124.407C67.2985 124.496 68.1385 124.258 68.8485 123.65C69.8369 122.805 70.228 121.66 70.228 119.612C70.228 117.066 69.4629 115.549 67.901 114.998C67.1596 114.737 65.7898 114.732 65.07 114.988ZM93.7015 117.129V119.511L94.6567 119.443C96.2674 119.328 97.0181 118.613 97.0119 117.201C97.0051 115.667 96.3172 114.99 94.6022 114.83L93.7015 114.746V117.129ZM102.951 117.061V119.373L103.952 119.308C105.693 119.195 106.265 118.659 106.265 117.141C106.265 115.539 105.655 114.942 103.888 114.815L102.951 114.748V117.061ZM114.91 114.988C114.152 115.258 113.356 116.091 113 116.986C112.592 118.014 112.55 120.95 112.927 122.03C113.431 123.47 114.492 124.284 116.026 124.407C117.138 124.496 117.978 124.258 118.688 123.65C119.676 122.805 120.068 121.66 120.068 119.612C120.068 117.066 119.302 115.549 117.741 114.998C116.999 114.737 115.629 114.732 114.91 114.988ZM126.974 117.129V119.511L127.929 119.443C129.54 119.328 130.29 118.613 130.284 117.201C130.277 115.667 129.59 114.99 127.875 114.83L126.974 114.746V117.129ZM146.44 117.061V119.373L147.441 119.308C149.181 119.195 149.754 118.659 149.754 117.141C149.754 115.539 149.143 114.942 147.377 114.815L146.44 114.748V117.061ZM194.018 114.988C193.26 115.258 192.465 116.091 192.109 116.986C191.7 118.014 191.658 120.95 192.036 122.03C192.539 123.47 193.6 124.284 195.134 124.407C196.246 124.496 197.086 124.258 197.796 123.65C198.785 122.805 199.176 121.66 199.176 119.612C199.176 117.066 198.411 115.549 196.849 114.998C196.107 114.737 194.738 114.732 194.018 114.988ZM246.757 114.988C245.999 115.258 245.203 116.091 244.847 116.986C244.439 118.014 244.397 120.95 244.774 122.03C245.278 123.47 246.339 124.284 247.873 124.407C248.985 124.496 249.825 124.258 250.535 123.65C251.523 122.805 251.915 121.66 251.915 119.612C251.915 117.066 251.149 115.549 249.588 114.998C248.846 114.737 247.476 114.732 246.757 114.988Z" fill="white"/>
</svg>
