<svg class="broken_home" width="583" height="548" viewBox="0 0 583 548" fill="none" xmlns="http://www.w3.org/2000/svg">
<path fill-rule="evenodd" clip-rule="evenodd" d="M480.057 269.968C476.006 272.095 472.413 276.203 471.286 280C470.363 283.108 470.214 299.614 470.214 399.035V514.461H410.813H351.411L351.205 465.795C350.973 411.357 351.354 415.228 345.644 409.269C340.926 404.346 341.189 404.37 291.572 404.37C243.035 404.37 242.731 404.394 237.498 408.723C236.031 409.936 234.143 412.346 233.306 414.078C231.807 417.173 231.782 418.018 231.782 465.847V514.469L172.174 514.283L112.566 514.096L112.201 400.725C111.794 274.135 112.3 285.206 106.707 280.595C98.4071 273.755 86.5424 276.232 81.3275 285.895L79.754 288.811V412.447V536.083L81.9604 539.652C83.3283 541.864 85.5245 544.06 87.7367 545.428L91.3052 547.634L169.746 547.861C227.128 548.027 249.235 547.862 252.09 547.245C256.721 546.245 261.22 542.575 263.233 538.156C264.475 535.429 264.563 532.079 264.577 486.573L264.594 437.908H291.208H317.821V485.165C317.821 538.413 317.761 537.731 322.926 542.895C328.275 548.244 324.031 547.998 411.194 547.998C494.852 547.998 491.936 548.124 497.096 544.308C498.276 543.436 500.093 541.159 501.134 539.247L503.026 535.771V408.44C503.026 303.262 502.854 280.701 502.043 278.763C500.6 275.321 497.395 271.811 494.213 270.188C490.729 268.41 483.247 268.294 480.057 269.968Z" fill="black"/>
<path d="M287.922 0.375801C286.916 0.702428 285.112 1.4891 283.912 2.12559C282.711 2.76134 218.699 66.3777 141.662 143.494C18.9071 266.378 1.49212 284.079 0.754216 286.709C-1.11897 293.383 0.456722 298.501 5.93337 303.529C11.2059 308.369 17.7303 309.274 23.8872 306.018C25.2435 305.301 85.9087 245.362 158.698 172.819C231.489 100.278 291.264 40.836 291.534 40.7281C291.64 40.6854 303.828 52.8357 322.926 71.9751L263.233 159.668L322.926 199.767L345.644 254.083H392.647L480.057 230.077C502.641 252.867 522.572 273.018 536.443 287.102C547.667 298.498 556.701 307.072 558.288 307.834C564.188 310.668 572.708 309.79 577.742 305.832C582.319 302.231 584.265 294.183 582.142 287.631C580.932 283.895 544.545 248.311 480.057 183.728L428.74 219.817H362.388L351.205 172.819L299.169 159.668C320.971 130.437 367.346 71.9751 378.429 71.9751C348.414 41.6629 300.806 3.18275 299.169 2.21891C295.898 0.293416 290.767 -0.54794 287.922 0.375801Z" fill="black"/>
</svg>
