<svg class="WPS-Logo" width="233" height="106" viewBox="0 0 233 106" fill="none" xmlns="http://www.w3.org/2000/svg">
<path fill-rule="evenodd" clip-rule="evenodd" d="M114.124 0.690833C106.773 0.913877 95.8925 1.29799 95.7578 1.33923C95.6525 1.37144 95.6113 1.73928 95.6113 2.65055V3.91712L96.8123 4.06811C97.4729 4.15117 98.646 4.24395 99.4194 4.27429C102.489 4.39448 104.553 4.80296 105.603 5.4981C106.612 6.16664 107.41 7.50982 107.741 9.09971C108.164 11.1247 108.185 12.4667 108.235 40.6934C108.285 68.9655 108.241 72.8932 107.849 75.513C107.455 78.1484 106.471 79.758 104.702 80.6616C103.339 81.3584 100.692 81.7526 97.378 81.7526H95.6113V83.2169V84.6812H114.534H133.457V83.2169V81.7526L131.436 81.7523C125.365 81.751 122.762 80.8194 121.518 78.2029C120.478 76.0126 120.336 73.4769 120.335 57.0058L120.334 45.5549L125.46 45.5526C135.294 45.5482 140.512 45.1851 144.908 44.1993C150.922 42.8507 155.615 39.2028 158.346 33.7534C159.97 30.5121 160.922 26.2375 160.543 23.8831C160.454 23.3304 160.369 21.7668 160.351 20.3688C160.317 17.6881 160.273 17.398 159.602 15.4487C158.685 12.7863 157.53 10.9494 155.375 8.72977C153.386 6.67974 151.488 5.29919 148.982 4.07819C145.412 2.33871 141.414 1.44958 134.219 0.794736C132.471 0.635654 118.35 0.562677 114.124 0.690833ZM122.678 3.74046C121.808 3.78626 120.924 3.82995 120.715 3.83757L120.334 3.85139V23.074V42.2966L125.695 42.2409C131.295 42.1827 132.377 42.1033 135.039 41.5557C139.273 40.6846 141.908 39.0274 144.26 35.7554C146.066 33.2431 147.126 30.3821 147.584 26.7819C147.831 24.8417 147.768 20.6392 147.461 18.6702C146.607 13.1792 144.503 9.38707 141.015 7.04851C137.03 4.37761 131.055 3.29976 122.678 3.74046Z" fill="#C3AB93"/>
<path fill-rule="evenodd" clip-rule="evenodd" d="M178.333 0.162309C172.48 0.964984 167.644 3.76088 164.126 8.37521C160.828 12.7015 159.626 18.4714 160.705 24.7988C161.591 29.9957 164.894 35.2769 169.331 38.5887C172.371 40.8581 177.304 43.4229 185.656 47.0757C194.217 50.8197 198.891 53.5789 201.617 56.4966C205.877 61.0573 206.631 68.1524 203.448 73.7281C201.74 76.7214 199.145 79.2011 196.329 80.5313C193.608 81.8161 190.993 82.3383 187.276 82.3383C182.181 82.3383 178.149 81.1319 174.411 78.4889C173.119 77.5757 170.807 75.2596 169.727 73.7971C166.845 69.894 164.712 64.8475 163.237 58.4407L162.792 56.5079L161.248 56.4752L159.703 56.4425V69.8038V83.1651L161.242 83.1324L162.781 83.0997L163.218 81.3425C163.824 78.903 164.436 77.2887 165.296 75.8581L165.705 75.1766L167.42 76.8626C170.216 79.6111 172.195 81.039 175.345 82.5802C178.172 83.963 180.73 84.7329 184.133 85.2242C185.854 85.4728 190.405 85.5074 192.335 85.2866C197.761 84.6657 202.316 82.8704 205.998 79.9015C207.178 78.9502 209.158 76.8679 210 75.6936C212.242 72.5663 213.547 69.1517 214.087 65.0008C214.305 63.3322 214.268 59.4915 214.018 57.7964C213.385 53.5005 211.867 49.9734 209.254 46.7257C207.673 44.7603 205.782 43.1162 203.54 41.7571C200.933 40.1768 195.738 37.5804 190.05 35.0157C185.766 33.0839 184.404 32.4394 182.2 31.3004C172.4 26.2373 168.794 22.2709 168.525 16.2573C168.417 13.8589 168.806 11.9952 169.841 9.94284C171.799 6.06371 174.604 3.99177 178.977 3.19601C180.593 2.90186 184.485 2.89694 186.035 3.18687C191.697 4.24621 196.415 7.50869 199.955 12.8129C201.562 15.2215 202.99 18.3804 203.828 21.3814C204.059 22.2096 204.269 22.9549 204.294 23.0375C204.329 23.151 204.677 23.1796 205.719 23.1546L207.098 23.1216L207.128 12.315L207.158 1.50842H205.764C204.273 1.50842 204.228 1.52693 204.228 2.14018C204.228 2.56846 203.766 4.20065 203.388 5.10922C203.042 5.94013 202.04 7.63685 201.508 8.2918L201.24 8.62239L199.599 7.02465C196.447 3.95405 194.119 2.42871 190.989 1.38225C189.246 0.799576 187.458 0.396136 185.601 0.166298C183.823 -0.0536995 179.924 -0.0558148 178.333 0.162309ZM0 2.50415V3.96846L0.497973 3.96882C1.29391 3.96929 3.03049 4.20872 3.98378 4.44934C6.70096 5.13522 8.36935 6.83651 9.71552 10.2943C10.7215 12.878 12.5617 18.7196 22.9908 52.4356L33.2177 85.4981L34.7409 85.4972L36.2642 85.4964L47.161 51.7049C53.1542 33.1197 58.0871 17.9124 58.1228 17.9111C58.1587 17.9097 63.8021 33.1039 70.6639 51.6756L83.1399 85.4426L84.5611 85.4754L85.9824 85.5082L86.1046 85.124C86.1717 84.9126 90.3721 70.533 95.4387 53.1692C105.685 18.0525 105.941 17.206 107.573 13.033C108.046 11.8243 108.058 11.7576 107.983 10.8354C107.872 9.47168 107.619 8.37626 107.214 7.51091C106.153 5.24416 104.723 4.59566 100.185 4.324C99.1874 4.26425 98.3545 4.23216 98.334 4.25266C98.3135 4.27316 98.5755 4.38046 98.9163 4.49116C101.156 5.21816 102.659 6.79212 103.284 9.06425C103.547 10.0187 103.643 12.3707 103.47 13.591C103.29 14.8626 102.525 18.3166 101.932 20.5444C101.001 24.0358 88.6529 66.8612 88.5884 66.8211C88.5519 66.7984 83.1176 51.9891 76.5121 33.9115L64.5022 1.04289L62.7446 1.04148L60.9871 1.03996L50.2688 34.0092C44.3737 52.1422 39.5419 66.9683 39.5312 66.9561C39.5045 66.9251 24.7475 18.7412 24.0792 16.5029C23.7811 15.5043 23.2954 13.7383 23 12.5786C22.5178 10.6855 22.4616 10.3264 22.4505 9.06425C22.4398 7.85415 22.4733 7.58225 22.6913 7.11075C23.0348 6.36758 23.8298 5.53223 24.532 5.17646C25.4131 4.73002 27.1563 4.33443 29.2044 4.11583L31.0501 3.91891V2.47943V1.03984H15.525H0V2.50415ZM224.236 74.3595C222.215 75.0239 220.665 76.8827 220.358 79.0101C219.866 82.4231 222.571 85.5012 226.061 85.5012C227.437 85.5012 228.991 84.8378 229.997 83.8206C230.735 83.0753 230.994 82.6897 231.296 81.8898C232.373 79.0363 231.136 75.9374 228.401 74.6345C227.538 74.2237 227.412 74.1971 226.197 74.1686C225.188 74.145 224.762 74.1866 224.236 74.3595ZM54.2498 96.7909C53.019 97.1297 51.9557 97.9344 51.4069 98.9427C50.7522 100.145 50.7144 101.997 51.3189 103.245C52.3854 105.448 55.4005 106.387 57.9277 105.304C58.736 104.958 59.6649 104.023 60.0619 103.157C60.3575 102.513 60.3963 102.294 60.3986 101.257C60.402 99.7251 60.1789 99.0718 59.3446 98.1708C58.6918 97.466 57.8334 96.962 56.9312 96.7541C56.239 96.5945 54.8963 96.6129 54.2498 96.7909ZM84.9776 96.7092C83.9947 96.7515 83.8938 96.7773 83.8938 96.9858C83.8938 97.1751 83.9749 97.2156 84.3542 97.2156C85.1967 97.2156 85.1827 97.1488 85.1827 101.148C85.1827 104.557 85.1724 104.723 84.9483 104.947C84.7922 105.103 84.5578 105.181 84.2453 105.181C83.9068 105.181 83.7766 105.23 83.7766 105.357C83.7766 105.507 84.0956 105.533 85.9443 105.533C87.793 105.533 88.1119 105.507 88.1119 105.357C88.1119 105.227 87.9752 105.181 87.5847 105.181C86.6712 105.181 86.5887 105.007 86.5887 103.073V101.433H86.9164C87.3253 101.433 87.7825 101.898 88.9321 103.483C89.3994 104.127 89.9704 104.852 90.201 105.094L90.6201 105.533H91.8852C92.8966 105.533 93.1502 105.5 93.1502 105.368C93.1502 105.266 92.9706 105.172 92.6859 105.124C92.0121 105.01 91.4073 104.516 90.5075 103.345C90.0704 102.777 89.4772 102.065 89.1892 101.764L88.6654 101.216L89.1326 101.091C90.2497 100.79 90.924 100.006 90.924 99.0082C90.924 97.4626 89.8452 96.7651 87.3503 96.6975C86.6414 96.6783 85.5738 96.6836 84.9776 96.7092ZM96.5482 96.7909C95.3174 97.1297 94.2541 97.9344 93.7053 98.9427C93.0507 100.145 93.0128 101.997 93.6173 103.245C94.6838 105.448 97.6989 106.387 100.226 105.304C101.034 104.958 101.963 104.023 102.36 103.157C102.656 102.513 102.695 102.294 102.697 101.257C102.7 99.7251 102.477 99.0718 101.643 98.1708C100.99 97.466 100.132 96.962 99.2296 96.7541C98.5374 96.5945 97.1947 96.6129 96.5482 96.7909ZM121.886 96.7092C120.903 96.7515 120.802 96.7773 120.802 96.9858C120.802 97.1751 120.883 97.2156 121.263 97.2156C122.105 97.2156 122.091 97.1488 122.091 101.148C122.091 104.557 122.081 104.723 121.857 104.947C121.701 105.103 121.466 105.181 121.154 105.181C120.815 105.181 120.685 105.23 120.685 105.357C120.685 105.507 121.004 105.533 122.853 105.533C124.702 105.533 125.021 105.507 125.021 105.357C125.021 105.227 124.884 105.181 124.493 105.181C123.58 105.181 123.497 105.007 123.497 103.073V101.433H123.825C124.234 101.433 124.691 101.898 125.841 103.483C126.308 104.127 126.879 104.852 127.11 105.094L127.529 105.533H128.794C129.805 105.533 130.059 105.5 130.059 105.368C130.059 105.266 129.879 105.172 129.594 105.124C128.921 105.01 128.316 104.516 127.416 103.345C126.979 102.777 126.386 102.065 126.098 101.764L125.574 101.216L126.041 101.091C127.158 100.79 127.833 100.006 127.833 99.0082C127.833 97.4626 126.754 96.7651 124.259 96.6975C123.55 96.6783 122.482 96.6836 121.886 96.7092ZM154.197 96.8091C153.301 97.2134 152.907 97.8262 152.907 98.8129C152.907 99.6978 153.247 100.398 153.885 100.827C154.153 101.007 154.993 101.456 155.752 101.824C156.811 102.338 157.187 102.582 157.363 102.871C158.026 103.959 157.156 105.297 155.785 105.298C154.61 105.299 153.702 104.507 153.363 103.184C153.253 102.757 153.158 102.604 153.002 102.604C152.809 102.604 152.79 102.733 152.79 104.069C152.79 105.286 152.819 105.533 152.964 105.533C153.06 105.533 153.219 105.34 153.318 105.103L153.497 104.673L153.817 104.973C154.43 105.545 154.888 105.707 155.896 105.706C156.711 105.706 156.907 105.663 157.392 105.379C157.699 105.199 158.094 104.834 158.27 104.569C158.549 104.147 158.59 103.97 158.59 103.179C158.59 102.363 158.555 102.222 158.238 101.765C157.948 101.345 157.653 101.139 156.539 100.576C155.798 100.201 154.968 99.7642 154.695 99.6049C154.161 99.294 153.844 98.8188 153.844 98.3285C153.844 97.9334 154.137 97.3723 154.424 97.2192C154.809 97.0129 155.855 97.0753 156.272 97.3294C156.732 97.6098 157.316 98.3926 157.421 98.869C157.474 99.1115 157.558 99.2086 157.692 99.1827C157.858 99.1509 157.887 98.972 157.887 97.9771C157.887 97.025 157.854 96.8025 157.709 96.7746C157.601 96.7537 157.477 96.8815 157.395 97.0988L157.26 97.4574L156.735 97.0874C156.297 96.779 156.076 96.7096 155.408 96.6709C154.844 96.6382 154.484 96.6792 154.197 96.8091ZM163.687 96.7909C162.456 97.1297 161.393 97.9344 160.844 98.9427C160.189 100.145 160.151 101.997 160.756 103.245C161.822 105.448 164.837 106.387 167.365 105.304C168.173 104.958 169.102 104.023 169.499 103.157C169.794 102.513 169.833 102.294 169.836 101.257C169.839 99.7251 169.616 99.0718 168.781 98.1708C168.129 97.466 167.27 96.962 166.368 96.7541C165.676 96.5945 164.333 96.6129 163.687 96.7909ZM208.446 96.7909C207.215 97.1297 206.152 97.9344 205.603 98.9427C204.948 100.145 204.91 101.997 205.515 103.245C206.581 105.448 209.596 106.387 212.124 105.304C212.932 104.958 213.861 104.023 214.258 103.157C214.553 102.513 214.592 102.294 214.595 101.257C214.598 99.7251 214.375 99.0718 213.54 98.1708C212.888 97.466 212.029 96.962 211.127 96.7541C210.435 96.5945 209.092 96.6129 208.446 96.7909ZM228.248 96.8091C227.353 97.2134 226.959 97.8262 226.959 98.8129C226.959 99.6978 227.299 100.398 227.937 100.827C228.204 101.007 229.045 101.456 229.804 101.824C230.863 102.338 231.238 102.582 231.415 102.871C232.078 103.959 231.208 105.297 229.837 105.298C228.661 105.299 227.753 104.507 227.414 103.184C227.305 102.757 227.21 102.604 227.054 102.604C226.86 102.604 226.841 102.733 226.841 104.069C226.841 105.286 226.871 105.533 227.016 105.533C227.111 105.533 227.271 105.34 227.369 105.103L227.549 104.673L227.869 104.973C228.481 105.545 228.939 105.707 229.947 105.706C230.762 105.706 230.959 105.663 231.444 105.379C231.751 105.199 232.146 104.834 232.322 104.569C232.601 104.147 232.641 103.97 232.641 103.179C232.641 102.363 232.606 102.222 232.29 101.765C231.999 101.345 231.704 101.139 230.591 100.576C229.85 100.201 229.02 99.7642 228.746 99.6049C228.212 99.294 227.896 98.8188 227.896 98.3285C227.896 97.9334 228.189 97.3723 228.475 97.2192C228.861 97.0129 229.907 97.0753 230.324 97.3294C230.784 97.6098 231.368 98.3926 231.473 98.869C231.526 99.1115 231.61 99.2086 231.744 99.1827C231.909 99.1509 231.938 98.972 231.938 97.9771C231.938 97.025 231.905 96.8025 231.76 96.7746C231.652 96.7537 231.529 96.8815 231.447 97.0988L231.311 97.4574L230.786 97.0874C230.349 96.779 230.127 96.7096 229.459 96.6709C228.896 96.6382 228.536 96.6792 228.248 96.8091ZM0.11717 96.9667C0.11717 97.1178 0.228597 97.2086 0.474538 97.2578C0.94685 97.3522 1.00919 97.5069 2.40843 102.048C3.35517 105.121 3.59092 105.767 3.76456 105.767C3.93657 105.767 4.17934 105.138 5.10136 102.301C5.72095 100.394 6.24329 98.8525 6.26204 98.8744C6.28078 98.8963 6.86476 100.456 7.55993 102.341C8.57826 105.101 8.86509 105.767 9.03569 105.767C9.18263 105.767 9.28503 105.627 9.37045 105.31C9.84358 103.554 11.4133 98.3714 11.6002 97.9488C11.7608 97.5858 11.9347 97.3916 12.1832 97.2979C12.3945 97.2181 12.5372 97.0802 12.5372 96.9557C12.5372 96.7688 12.4086 96.7471 11.3069 96.7471C10.202 96.7471 10.0766 96.7685 10.0766 96.9571C10.0766 97.0927 10.211 97.2068 10.4561 97.2792C11.1397 97.4811 11.1298 97.7087 10.3104 100.625C9.90498 102.068 9.53847 103.316 9.49582 103.399C9.45329 103.482 8.86544 102.032 8.18972 100.178C7.1516 97.3282 6.92569 96.8056 6.73201 96.8056C6.53575 96.8056 6.35519 97.2591 5.47243 99.9685C4.90568 101.708 4.40291 103.229 4.35498 103.349C4.25351 103.603 2.57774 98.2853 2.57774 97.7093C2.57774 97.3515 2.74166 97.2156 3.1732 97.2156C3.31978 97.2156 3.39793 97.1342 3.39793 96.9813C3.39793 96.7582 3.31978 96.7471 1.75755 96.7471C0.231762 96.7471 0.11717 96.7624 0.11717 96.9667ZM13.3574 96.9813C13.3574 97.1759 13.4355 97.2156 13.8178 97.2156C14.6614 97.2156 14.6463 97.143 14.6463 101.2C14.6463 104.805 14.6454 104.817 14.3858 104.999C14.2426 105.099 13.9526 105.181 13.7414 105.181C13.4782 105.181 13.3574 105.237 13.3574 105.357C13.3574 105.507 13.6569 105.533 15.3493 105.533C17.0417 105.533 17.3412 105.507 17.3412 105.357C17.3412 105.236 17.22 105.181 16.9535 105.181C16.1644 105.181 16.1152 105.061 16.0734 103.024L16.0358 101.199H18.2703H20.5048L20.5041 102.692C20.5031 104.898 20.3826 105.175 19.4209 105.18C19.2133 105.181 19.0987 105.244 19.0987 105.357C19.0987 105.507 19.4047 105.533 21.1492 105.533C22.8938 105.533 23.1997 105.507 23.1997 105.357C23.1997 105.236 23.0775 105.181 22.8026 105.181C22.5842 105.181 22.2879 105.086 22.1442 104.97C21.8938 104.767 21.8804 104.661 21.8222 102.422C21.7489 99.6014 21.86 97.6347 22.1064 97.3882C22.2014 97.2933 22.4901 97.2156 22.748 97.2156C23.1314 97.2156 23.2096 97.1783 23.1775 97.0106C23.142 96.8264 22.9339 96.8023 21.1184 96.7735C19.1584 96.7425 19.0987 96.7486 19.0987 96.9785C19.0987 97.1805 19.1749 97.2156 19.6117 97.2156C20.38 97.2156 20.4395 97.3484 20.487 99.1663L20.5277 100.73H18.29H16.0523V99.2332C16.0523 97.4507 16.1487 97.2156 16.8792 97.2156C17.263 97.2156 17.3412 97.176 17.3412 96.9813C17.3412 96.7562 17.263 96.7471 15.3493 96.7471C13.4355 96.7471 13.3574 96.7562 13.3574 96.9813ZM24.4495 96.8252C24.2182 97.0563 24.4004 97.2156 24.896 97.2156C25.7936 97.2156 25.7929 97.2119 25.7532 101.312C25.7207 104.657 25.7064 104.858 25.4914 105.015C25.3663 105.107 25.0632 105.181 24.8177 105.181C24.4991 105.181 24.3714 105.232 24.3714 105.357C24.3714 105.507 24.6773 105.533 26.4219 105.533C28.1664 105.533 28.4723 105.507 28.4723 105.357C28.4723 105.234 28.3486 105.181 28.0622 105.181C27.8083 105.181 27.5629 105.092 27.4178 104.947C27.1938 104.723 27.1835 104.557 27.1835 101.148C27.1835 97.1488 27.1694 97.2156 28.012 97.2156C28.3942 97.2156 28.4723 97.1759 28.4723 96.9813C28.4723 96.7563 28.3942 96.7471 26.5 96.7471C25.4151 96.7471 24.4924 96.7822 24.4495 96.8252ZM30.0834 96.8332C29.3151 96.8937 29.3345 97.1672 30.1146 97.2744C30.5071 97.3284 30.7406 97.4268 30.8176 97.5706C30.8858 97.6979 30.9329 99.2025 30.9329 101.249C30.9329 104.557 30.9224 104.723 30.6986 104.947C30.5424 105.103 30.308 105.181 29.9956 105.181C29.657 105.181 29.5269 105.23 29.5269 105.357C29.5269 105.509 29.9226 105.533 32.3852 105.533C34.91 105.533 35.3318 105.506 36.0003 105.299C37.3241 104.89 38.2234 103.859 38.5344 102.394C39.101 99.7238 37.7325 97.3965 35.2918 96.8787C34.7193 96.7574 31.4126 96.7284 30.0834 96.8332ZM40.5116 96.8332C39.7433 96.8937 39.7626 97.1672 40.5427 97.2744C40.9353 97.3284 41.1688 97.4268 41.2458 97.5706C41.314 97.6979 41.3611 99.2025 41.3611 101.249C41.3611 104.557 41.3505 104.723 41.1267 104.947C40.9705 105.103 40.7362 105.181 40.4237 105.181C40.0852 105.181 39.955 105.23 39.955 105.357C39.955 105.509 40.3507 105.533 42.8134 105.533C45.3382 105.533 45.76 105.506 46.4284 105.299C47.7522 104.89 48.6515 103.859 48.9626 102.394C49.5291 99.7238 48.1607 97.3965 45.7199 96.8787C45.1474 96.7574 41.8407 96.7284 40.5116 96.8332ZM61.8268 96.8252C61.6071 97.0447 61.7753 97.2156 62.2107 97.2156C63.0308 97.2156 63.0375 97.2481 63.0375 101.222V104.708L62.7739 104.877C62.629 104.971 62.3126 105.083 62.0709 105.127C61.8126 105.174 61.6315 105.275 61.6315 105.37C61.6315 105.502 61.9589 105.533 63.3305 105.533C64.6899 105.533 65.0294 105.501 65.0294 105.373C65.0294 105.273 64.8422 105.187 64.5317 105.146C64.1947 105.1 63.9486 104.98 63.7701 104.772C63.5097 104.47 63.5062 104.421 63.5062 101.12V97.7742L66.5018 101.741C68.3473 104.186 69.5843 105.723 69.724 105.746C69.9444 105.782 69.9506 105.673 69.9506 101.792C69.9506 97.9957 69.9617 97.7902 70.1783 97.5736C70.3037 97.4483 70.5937 97.3106 70.8228 97.2676C71.1255 97.2109 71.2394 97.1291 71.2394 96.9683C71.2394 96.7623 71.1302 96.7471 69.6576 96.7471C68.154 96.7471 68.0758 96.7587 68.0758 96.9813C68.0758 97.1544 68.154 97.2156 68.3746 97.2156C68.8123 97.2156 69.3518 97.5325 69.4254 97.8327C69.4607 97.9766 69.4746 99.2793 69.4563 100.728L69.4233 103.361L66.9203 100.054L64.4173 96.7471H63.1611C62.4702 96.7471 61.8697 96.7822 61.8268 96.8252ZM76.0434 96.9716C76.0434 97.1762 76.1156 97.2156 76.4897 97.2156C76.7352 97.2156 77.0383 97.2905 77.1634 97.3819C77.38 97.5402 77.3909 97.7197 77.3909 101.141V104.734L77.1142 104.957C76.9621 105.081 76.6589 105.181 76.4405 105.181C76.1656 105.181 76.0434 105.236 76.0434 105.357C76.0434 105.507 76.3493 105.533 78.0939 105.533C79.8384 105.533 80.1444 105.507 80.1444 105.357C80.1444 105.244 80.0298 105.181 79.8221 105.18C78.8774 105.175 78.74 104.884 78.739 102.885L78.7383 101.585L79.9835 101.504C82.0254 101.372 82.7792 100.869 83.0093 99.4839C83.172 98.5035 82.6803 97.5658 81.7407 97.0649C81.2924 96.8259 81.0691 96.8045 78.6504 96.7674C76.0741 96.7281 76.0434 96.7304 76.0434 96.9716ZM104.281 96.9716C104.281 97.1762 104.354 97.2156 104.728 97.2156C104.973 97.2156 105.276 97.2905 105.401 97.3819C105.618 97.5402 105.629 97.7197 105.629 101.141V104.734L105.352 104.957C105.2 105.081 104.897 105.181 104.679 105.181C104.404 105.181 104.281 105.236 104.281 105.357C104.281 105.507 104.587 105.533 106.332 105.533C108.076 105.533 108.382 105.507 108.382 105.357C108.382 105.244 108.268 105.181 108.06 105.18C107.115 105.175 106.978 104.884 106.977 102.885L106.976 101.585L108.221 101.504C110.263 101.372 111.017 100.869 111.247 99.4839C111.41 98.5035 110.918 97.5658 109.979 97.0649C109.53 96.8259 109.307 96.8045 106.888 96.7674C104.312 96.7281 104.281 96.7304 104.281 96.9716ZM112.366 96.9813C112.366 97.1623 112.444 97.2156 112.709 97.2156C113.418 97.2156 113.421 97.2279 113.421 101.148C113.421 104.557 113.41 104.723 113.186 104.947C113.041 105.092 112.796 105.181 112.542 105.181C112.256 105.181 112.132 105.234 112.132 105.357C112.132 105.51 112.62 105.533 115.823 105.533H119.514L119.514 104.918C119.515 104.58 119.549 103.942 119.591 103.5C119.66 102.774 119.647 102.701 119.461 102.739C119.34 102.763 119.166 103.014 119.039 103.349C118.753 104.106 118.372 104.643 117.937 104.907C117.652 105.079 117.34 105.123 116.385 105.123C115.562 105.123 115.143 105.076 115.038 104.971C114.929 104.863 114.874 104.294 114.845 103.009L114.806 101.199H115.681C116.678 101.199 116.805 101.283 116.903 102.014C116.942 102.305 117.028 102.487 117.127 102.487C117.254 102.487 117.287 102.175 117.287 100.964C117.287 99.7538 117.254 99.4414 117.127 99.4414C117.028 99.4414 116.942 99.6253 116.902 99.9241C116.866 100.19 116.779 100.465 116.707 100.537C116.635 100.609 116.183 100.687 115.702 100.711L114.827 100.756V98.9856V97.2156H115.932C116.54 97.2156 117.168 97.2651 117.327 97.3256C117.758 97.4895 118.079 97.8882 118.289 98.5229C118.407 98.8757 118.546 99.0899 118.659 99.0899C118.816 99.0899 118.829 98.943 118.756 98.0066C118.709 97.4107 118.647 96.8835 118.617 96.8351C118.587 96.7866 117.168 96.7471 115.464 96.7471C112.444 96.7471 112.366 96.7529 112.366 96.9813ZM129.59 97.1384C129.59 97.3553 129.556 97.8568 129.515 98.2527C129.445 98.9223 129.456 98.9728 129.677 98.9728C129.861 98.9728 129.944 98.8519 130.05 98.4314C130.127 98.1281 130.335 97.7416 130.524 97.5528C130.848 97.2283 130.903 97.2156 131.983 97.2156H133.105V101.016C133.105 104.811 133.105 104.817 132.845 104.999C132.702 105.099 132.359 105.181 132.083 105.181C131.716 105.181 131.582 105.228 131.582 105.357C131.582 105.507 131.908 105.533 133.808 105.533C135.709 105.533 136.035 105.507 136.035 105.357C136.035 105.228 135.9 105.181 135.53 105.181C134.533 105.181 134.574 105.355 134.536 101.032L134.502 97.2156H135.554C136.132 97.2156 136.738 97.2661 136.9 97.3277C137.214 97.4471 137.55 97.9856 137.67 98.5621C137.712 98.7645 137.829 98.9295 137.948 98.9523C138.133 98.9879 138.149 98.8865 138.119 97.8987L138.085 96.8056L133.838 96.7749L129.59 96.7441V97.1384ZM138.847 96.9783C138.847 97.1353 138.924 97.2156 139.074 97.2156C139.482 97.2156 139.869 97.7067 141.243 99.9685L142.595 102.194L142.595 103.454C142.596 104.872 142.449 105.181 141.776 105.181C141.542 105.181 141.424 105.24 141.424 105.357C141.424 105.506 141.711 105.533 143.299 105.533C144.887 105.533 145.174 105.506 145.174 105.357C145.174 105.24 145.057 105.181 144.822 105.181C144.142 105.181 144.002 104.877 144.002 103.395L144.002 102.077L145.125 100.207C146.485 97.9435 146.822 97.5048 147.347 97.3149C147.604 97.2218 147.752 97.0918 147.752 96.9578C147.752 96.7661 147.619 96.7471 146.287 96.7471C144.9 96.7471 144.822 96.7596 144.822 96.9813C144.822 97.1532 144.9 97.2156 145.115 97.2156C145.541 97.2156 145.915 97.6312 145.823 98.0012C145.782 98.1643 145.317 99.0289 144.79 99.9225C144.056 101.167 143.801 101.513 143.7 101.402C143.478 101.159 141.579 97.988 141.493 97.7175C141.4 97.4233 141.687 97.2156 142.187 97.2156C142.418 97.2156 142.486 97.164 142.457 97.0106C142.422 96.8278 142.224 96.8021 140.632 96.7733C138.906 96.742 138.847 96.7489 138.847 96.9783ZM171.42 96.9813C171.42 97.1759 171.498 97.2156 171.88 97.2156C172.723 97.2156 172.709 97.1488 172.709 101.148C172.709 104.557 172.698 104.723 172.474 104.947C172.329 105.092 172.084 105.181 171.83 105.181C171.544 105.181 171.42 105.234 171.42 105.357C171.42 105.51 171.915 105.533 175.169 105.533H178.919V104.244C178.919 103.086 178.898 102.956 178.71 102.956C178.564 102.956 178.455 103.114 178.345 103.483C178.11 104.281 177.602 104.912 177.077 105.057C176.834 105.125 176.173 105.18 175.609 105.181C174.019 105.182 174.115 105.435 174.115 101.225C174.115 97.164 174.103 97.2156 175.059 97.2156C175.56 97.2156 175.638 97.184 175.638 96.9813C175.638 96.7557 175.56 96.7471 173.529 96.7471C171.498 96.7471 171.42 96.7557 171.42 96.9813ZM179.153 96.9785C179.153 97.174 179.23 97.216 179.593 97.2174C180.405 97.2208 180.377 97.111 180.442 100.524C180.499 103.527 180.508 103.621 180.794 104.173C180.956 104.486 181.295 104.888 181.555 105.074C182.952 106.074 185.649 105.928 186.748 104.793C187.442 104.076 187.502 103.768 187.564 100.626C187.616 98.0212 187.64 97.7504 187.843 97.5477C187.965 97.4254 188.222 97.2941 188.413 97.2559C188.65 97.2085 188.761 97.1165 188.761 96.9667C188.761 96.7637 188.65 96.7471 187.296 96.7471C185.939 96.7471 185.832 96.7632 185.832 96.9683C185.832 97.1267 185.944 97.2106 186.226 97.2634C186.443 97.3041 186.719 97.4473 186.841 97.5817C187.044 97.8063 187.062 98.0443 187.062 100.537C187.062 102.029 187.023 103.39 186.974 103.562C186.847 104.015 186.344 104.568 185.788 104.863C185.399 105.07 185.107 105.12 184.3 105.121C183.399 105.123 183.245 105.09 182.809 104.801C181.948 104.231 181.918 104.103 181.876 100.789C181.832 97.3402 181.843 97.2937 182.708 97.2382C183.161 97.2091 183.261 97.1642 183.231 97.004C183.197 96.8282 182.962 96.802 181.173 96.7735C179.213 96.7425 179.153 96.7486 179.153 96.9785ZM189.933 97.1384C189.933 97.3553 189.899 97.8568 189.858 98.2527C189.787 98.9223 189.799 98.9728 190.019 98.9728C190.204 98.9728 190.287 98.8519 190.393 98.4314C190.469 98.1281 190.678 97.7416 190.866 97.5528C191.191 97.2283 191.246 97.2156 192.326 97.2156H193.448V101.016C193.448 104.811 193.448 104.817 193.187 104.999C193.044 105.099 192.702 105.181 192.426 105.181C192.058 105.181 191.925 105.228 191.925 105.357C191.925 105.507 192.25 105.533 194.151 105.533C196.052 105.533 196.377 105.507 196.377 105.357C196.377 105.228 196.243 105.181 195.872 105.181C194.875 105.181 194.917 105.355 194.879 101.032L194.845 97.2156H195.896C196.474 97.2156 197.08 97.2661 197.243 97.3277C197.557 97.4471 197.893 97.9856 198.012 98.5621C198.055 98.7645 198.172 98.9295 198.29 98.9523C198.476 98.9879 198.492 98.8865 198.461 97.8987L198.428 96.8056L194.18 96.7749L189.933 96.7441V97.1384ZM199.619 96.8252C199.388 97.0563 199.57 97.2156 200.065 97.2156C200.963 97.2156 200.962 97.2119 200.923 101.312C200.89 104.657 200.876 104.858 200.661 105.015C200.536 105.107 200.233 105.181 199.987 105.181C199.668 105.181 199.541 105.232 199.541 105.357C199.541 105.507 199.847 105.533 201.591 105.533C203.336 105.533 203.642 105.507 203.642 105.357C203.642 105.234 203.518 105.181 203.232 105.181C202.978 105.181 202.732 105.092 202.587 104.947C202.363 104.723 202.353 104.557 202.353 101.148C202.353 97.1488 202.339 97.2156 203.181 97.2156C203.564 97.2156 203.642 97.1759 203.642 96.9813C203.642 96.7563 203.564 96.7471 201.669 96.7471C200.584 96.7471 199.662 96.7822 199.619 96.8252ZM216.023 96.8252C215.803 97.0447 215.971 97.2156 216.407 97.2156C217.227 97.2156 217.233 97.2481 217.233 101.222V104.708L216.97 104.877C216.825 104.971 216.508 105.083 216.267 105.127C216.009 105.174 215.827 105.275 215.827 105.37C215.827 105.502 216.155 105.533 217.526 105.533C218.886 105.533 219.225 105.501 219.225 105.373C219.225 105.273 219.038 105.187 218.728 105.146C218.391 105.1 218.145 104.98 217.966 104.772C217.706 104.47 217.702 104.421 217.702 101.12V97.7742L220.698 101.741C222.543 104.186 223.78 105.723 223.92 105.746C224.14 105.782 224.146 105.673 224.146 101.792C224.146 97.9957 224.158 97.7902 224.374 97.5736C224.5 97.4483 224.79 97.3106 225.019 97.2676C225.321 97.2109 225.435 97.1291 225.435 96.9683C225.435 96.7623 225.326 96.7471 223.854 96.7471C222.35 96.7471 222.272 96.7587 222.272 96.9813C222.272 97.1544 222.35 97.2156 222.571 97.2156C223.008 97.2156 223.548 97.5325 223.621 97.8327C223.657 97.9766 223.671 99.2793 223.652 100.728L223.619 103.361L221.116 100.054L218.613 96.7471H217.357C216.666 96.7471 216.066 96.7822 216.023 96.8252ZM32.3637 100.941C32.3898 103.934 32.4323 104.853 32.5501 104.971C32.6519 105.072 33.0426 105.123 33.7218 105.123C35.0054 105.123 35.6953 104.877 36.259 104.219C36.887 103.485 37.0855 102.767 37.0777 101.257C37.0692 99.6194 36.7973 98.8273 35.9644 98.0142C35.305 97.3705 34.9017 97.2312 33.4182 97.1345L32.3297 97.0635L32.3637 100.941ZM42.7918 100.941C42.8179 103.934 42.8605 104.853 42.9782 104.971C43.0801 105.072 43.4707 105.123 44.1499 105.123C45.4335 105.123 46.1234 104.877 46.6871 104.219C47.3152 103.485 47.5137 102.767 47.5058 101.257C47.4974 99.6194 47.2254 98.8273 46.3926 98.0142C45.7331 97.3705 45.3298 97.2312 43.8463 97.1345L42.7578 97.0635L42.7918 100.941ZM54.439 97.2709C53.7963 97.5 53.1208 98.2075 52.8188 98.968C52.4722 99.8406 52.4361 102.335 52.7568 103.252C53.1843 104.476 54.0843 105.167 55.3864 105.271C56.3304 105.347 57.0432 105.144 57.6458 104.629C58.4846 103.911 58.8166 102.938 58.8166 101.199C58.8166 99.0355 58.1672 97.7468 56.8417 97.2792C56.2125 97.0573 55.0499 97.0533 54.439 97.2709ZM78.7383 99.0888V101.113L79.549 101.055C80.916 100.957 81.5531 100.35 81.5478 99.1504C81.5421 97.847 80.9582 97.2719 79.5027 97.136L78.7383 97.0646V99.0888ZM86.5887 99.031V100.995L87.4382 100.94C88.915 100.844 89.4008 100.389 89.4008 99.0998C89.4008 97.7384 88.8829 97.2311 87.3837 97.1239L86.5887 97.067V99.031ZM96.7374 97.2709C96.0947 97.5 95.4192 98.2075 95.1172 98.968C94.7706 99.8406 94.7345 102.335 95.0552 103.252C95.4828 104.476 96.3827 105.167 97.6849 105.271C98.6288 105.347 99.3416 105.144 99.9442 104.629C100.783 103.911 101.115 102.938 101.115 101.199C101.115 99.0355 100.466 97.7468 99.1401 97.2792C98.5109 97.0573 97.3483 97.0533 96.7374 97.2709ZM106.976 99.0888V101.113L107.787 101.055C109.154 100.957 109.791 100.35 109.786 99.1504C109.78 97.847 109.196 97.2719 107.741 97.136L106.976 97.0646V99.0888ZM123.497 99.031V100.995L124.347 100.94C125.824 100.844 126.309 100.389 126.309 99.0998C126.309 97.7384 125.792 97.2311 124.292 97.1239L123.497 97.067V99.031ZM163.876 97.2709C163.233 97.5 162.558 98.2075 162.256 98.968C161.909 99.8406 161.873 102.335 162.194 103.252C162.621 104.476 163.521 105.167 164.823 105.271C165.767 105.347 166.48 105.144 167.083 104.629C167.922 103.911 168.253 102.938 168.253 101.199C168.253 99.0355 167.604 97.7468 166.279 97.2792C165.649 97.0573 164.487 97.0533 163.876 97.2709ZM208.635 97.2709C207.992 97.5 207.317 98.2075 207.015 98.968C206.668 99.8406 206.632 102.335 206.953 103.252C207.38 104.476 208.28 105.167 209.582 105.271C210.526 105.347 211.239 105.144 211.842 104.629C212.681 103.911 213.012 102.938 213.012 101.199C213.012 99.0355 212.363 97.7468 211.038 97.2792C210.408 97.0573 209.246 97.0533 208.635 97.2709Z" fill="#241C24"/>
</svg>
